<svg width="150" height="200" viewBox="150 0 150 200" fill="none" xmlns="http://www.w3.org/2000/svg">
<path d="M193.014 43.1282C193.014 43.1282 223.16 68.7375 250.818 91.4932C278.476 114.249 300.427 116.151 300.5 121.639C300.5 127.054 293.11 129.688 265.598 131.297C238.013 132.834 200.77 155.956 173.844 151.2C173.844 151.2 154.454 123.468 150.356 104.956C146.186 86.3713 193.014 43.1282 193.014 43.1282Z" fill="#EAB363"/>
<path d="M173.844 151.2C173.844 151.2 154.454 123.468 150.356 104.956C146.186 86.3713 193.014 43.1282 193.014 43.1282C193.014 43.1282 194.477 44.3721 197.038 46.494C194.185 64.8595 184.892 124.346 177.575 151.712C176.307 151.565 175.063 151.395 173.844 151.2Z" fill="#FFD399"/>
<path d="M170.331 134.736C170.331 134.736 157.527 106.2 159.502 98.1516C161.405 90.0298 189.282 55.8596 189.282 55.8596C189.721 64.5668 170.331 134.736 170.331 134.736Z" fill="#8C5E28"/>
<path d="M153.21 136.712C153.21 136.712 147.868 146.956 142.015 146.004C136.161 145.053 133.6 132.834 133.6 132.834C145.673 130.858 153.21 136.712 153.21 136.712Z" fill="#EAB363"/>
<path d="M137.332 142.346C134.771 138.395 133.6 132.834 133.6 132.834C139.966 131.81 145.088 132.98 148.527 134.297C145.82 137.078 140.844 140.297 137.332 142.346Z" fill="#FFD399"/>
<path d="M202.453 57.5425C202.453 57.5425 226.891 81.3958 231.282 82.7128C235.672 84.0299 226.891 94.3468 219.575 90.6883C212.258 86.9567 197.038 87.4689 197.038 87.4689L202.453 57.5425Z" fill="#F4CD9A"/>
</svg>